<svg width="13" height="13" viewBox="0 0 13 13" fill="none" xmlns="http://www.w3.org/2000/svg">
<g clip-path="url(#clip0_111_109)">
<path d="M5.25001 0.078125C3.74151 0.078125 2.53101 1.11413 2.53101 3.09413C2.53101 4.38713 3.04601 5.70413 3.82801 6.51563C4.13301 7.32713 3.58301 7.62913 3.46901 7.67213C1.89051 8.25113 0.0465088 9.30113 0.0465088 10.3441V10.7341C0.0465088 12.1556 2.75351 12.4841 5.26501 12.4841C5.8124 12.483 6.35959 12.4623 6.90551 12.4221C6.22193 11.7006 5.84173 10.744 5.84351 9.75013C5.84351 8.85463 6.14851 8.03413 6.65551 7.37513C6.58051 7.19913 6.55051 6.92163 6.68701 6.50013C7.46451 5.68763 7.96851 4.38213 7.96851 3.09363C7.96851 1.11413 6.75651 0.078625 5.24951 0.078625L5.25001 0.078125ZM9.75001 6.59363C8.91292 6.59363 8.11011 6.92616 7.5182 7.51807C6.92629 8.10998 6.59376 8.91279 6.59376 9.74988C6.59376 10.587 6.92629 11.3898 7.5182 11.9817C8.11011 12.5736 8.91292 12.9061 9.75001 12.9061C10.5871 12.9061 11.3899 12.5736 11.9818 11.9817C12.5737 11.3898 12.9063 10.587 12.9063 9.74988C12.9063 8.91279 12.5737 8.10998 11.9818 7.51807C11.3899 6.92616 10.5871 6.59363 9.75001 6.59363ZM9.31251 8.00013H10.1875V9.29713H11.4845V10.2031H10.1875V11.5001H9.31251V10.2031H8.00001V9.29713H9.31251V8.00013Z" fill="white"/>
</g>
<defs>
<clipPath id="clip0_111_109">
<rect width="13" height="13" fill="white"/>
</clipPath>
</defs>
</svg>
