<svg width="22" height="22" viewBox="0 0 22 22" fill="none" xmlns="http://www.w3.org/2000/svg">
<circle cx="11" cy="11" r="10.5" fill="#FAFAFA" stroke="#F7F7F7"/>
<path d="M11.4286 5C9.95094 5 8.53382 5.57946 7.48898 6.61091C6.44413 7.64235 5.85714 9.0413 5.85714 10.5H4L6.45143 12.9627L8.95238 10.5H7.09524C7.09524 9.36545 7.55178 8.27738 8.36444 7.47515C9.1771 6.67291 10.2793 6.22222 11.4286 6.22222C12.5778 6.22222 13.68 6.67291 14.4927 7.47515C15.3054 8.27738 15.7619 9.36545 15.7619 10.5C15.7619 11.6345 15.3054 12.7226 14.4927 13.5248C13.68 14.3271 12.5778 14.7777 11.4286 14.7777C10.2338 14.7777 9.15048 14.295 8.37048 13.5189L7.49143 14.3866C8.00623 14.9002 8.61954 15.3074 9.29554 15.5844C9.97153 15.8614 10.6967 16.0027 11.4286 16C12.9062 16 14.3233 15.4205 15.3682 14.3891C16.413 13.3576 17 11.9587 17 10.5C17 9.0413 16.413 7.64235 15.3682 6.61091C14.3233 5.57946 12.9062 5 11.4286 5Z" fill="#3484F7"/>
<path d="M11 8H11.9V10.8183L14 12.1976L13.568 13L11 11.3156V8Z" fill="#FFBF10"/>
</svg>
